PathFileType	4	(X/Y/Z)	/Users/itak/Documents/Research/Walk-IL/dataset/trc/00161_00008.trc
DataRate	CameraRate	NumFrames	NumMarkers	Units	OrigDataRate	OrigDataStartFrame	OrigNumFrames
100.000000	100.000000	4	53	mm	100.000000	285	570
Frame#	Time	RPSI			LPSI			L3			STRN			T10			C7			CLAV			RBAK			LBAK			LSHO			LUPA			LAEL			LAOL			LWTS			LWPS			LFRA			LIFD			LHPS			LHTS			RSHO			RUPA			RAEL			RAOL			RWTS			RWPS			RFRA			RIFD			RHTS			RHPS			RBHD			LFHD			RFHD			LBHD			LHIP			RHIP			RASI			LASI			LKNE			LTHI			LANK			LTIP			LTOE			LMT1			LMT5			LHEE			RKNE			RANK			RTIP			RTOE			RMT1			RMT5			RHEE			RTHI			
		X1	Y1	Z1	X2	Y2	Z2	X3	Y3	Z3	X4	Y4	Z4	X5	Y5	Z5	X6	Y6	Z6	X7	Y7	Z7	X8	Y8	Z8	X9	Y9	Z9	X10	Y10	Z10	X11	Y11	Z11	X12	Y12	Z12	X13	Y13	Z13	X14	Y14	Z14	X15	Y15	Z15	X16	Y16	Z16	X17	Y17	Z17	X18	Y18	Z18	X19	Y19	Z19	X20	Y20	Z20	X21	Y21	Z21	X22	Y22	Z22	X23	Y23	Z23	X24	Y24	Z24	X25	Y25	Z25	X26	Y26	Z26	X27	Y27	Z27	X28	Y28	Z28	X29	Y29	Z29	X30	Y30	Z30	X31	Y31	Z31	X32	Y32	Z32	X33	Y33	Z33	X34	Y34	Z34	X35	Y35	Z35	X36	Y36	Z36	X37	Y37	Z37	X38	Y38	Z38	X39	Y39	Z39	X40	Y40	Z40	X41	Y41	Z41	X42	Y42	Z42	X43	Y43	Z43	X44	Y44	Z44	X45	Y45	Z45	X46	Y46	Z46	X47	Y47	Z47	X48	Y48	Z48	X49	Y49	Z49	X50	Y50	Z50	X51	Y51	Z51	X52	Y52	Z52	X53	Y53	Z53	

286	2.85	-957.6309814453125	1025.9443359375	66.39486694335938	-945.511962890625	1030.359619140625	-57.02985000610352	-950.9841918945312	1066.869140625	5.698276519775391	-685.0218505859375	1268.8369140625	35.35116577148438	-980.1095581054688	1225.768798828125	-5.01303243637085	-904.9280395507812	1493.197875976562	-2.927583694458008	-708.7855224609375	1383.79296875	26.22143936157227	-989.7074584960938	1317.641235351562	93.02249908447266	-898.3507690429688	1469.461303710938	-105.1938171386719	-811.1087646484375	1454.918212890625	-172.8677520751953	-833.6239013671875	1321.810546875	-249.4807434082031	-810.62158203125	1106.182983398438	-265.2905578613281	-861.7005615234375	1086.824951171875	-196.4047698974609	-688.5144653320312	880.6600341796875	-222.7392578125	-763.6483154296875	854.8458251953125	-270.6774597167969	-788.40283203125	995.3887939453125	-277.0390930175781	-660.4392700195312	698.300048828125	-202.7053833007812	-736.6222534179688	787.1676025390625	-265.2817993164062	-669.0521850585938	804.8637084960938	-243.1179504394531	-866.6716918945312	1465.316528320312	186.4043426513672	-897.7716064453125	1397.138793945312	250.2049713134766	-936.5777587890625	1108.970336914062	286.5823059082031	-921.5765380859375	1103.054443359375	188.2649841308594	-811.9883422851562	875.263427734375	296.3945922851562	-895.9113159179688	861.2159423828125	319.7278747558594	-920.5996704101562	1035.692749023438	307.0449523925781	-800.0205688476562	687.534423828125	274.1081848144531	-793.0442504882812	780.8422241210938	311.1119384765625	-872.3198852539062	776.9509887695312	323.5181884765625	-870.045166015625	1639.8125	94.58258819580078	-710.2022094726562	1715.657958984375	-31.10013771057129	-708.9320068359375	1705.317749023438	98.1832275390625	-879.0240478515625	1656.977783203125	-42.00103378295898	-840.8604125976562	968.05029296875	-169.1695709228516	-811.027587890625	990.0841674804688	200.8219299316406	-727.0956420898438	1015.095336914062	150.3579711914062	-715.4193115234375	1003.093139648438	-108.8344497680664	-907.8692626953125	480.740478515625	-132.9049682617188	-869.26904296875	621.6226196289062	-154.8039703369141	-1223.377075195312	115.6149444580078	-121.0987167358398	-1057.322631835938	297.4713439941406	-138.8915100097656	-1039.9921875	39.38939666748047	-96.21930694580078	-1077.6435546875	41.40849304199219	-46.85770034790039	-1137.210571289062	50.87681198120117	-156.6108856201172	-1264.28662109375	150.5945129394531	-52.48270797729492	-635.2440795898438	522.4912109375	176.5366973876953	-589.74462890625	31.75503730773926	171.8164367675781	-590.4881591796875	408.9771118164062	161.5003814697266	-374.7149658203125	75.91706848144531	156.0627288818359	-422.6930541992188	63.96480560302734	104.6962661743164	-480.8987121582031	36.14422607421875	209.8914947509766	-636.8248291015625	35.61916732788086	99.65336608886719	-700.1199340820312	782.1610717773438	214.2627563476562	
287	2.86	-945.6204833984375	1028.22705078125	68.83734893798828	-933.1753540039062	1032.157348632812	-54.63105773925781	-938.9886474609375	1068.812377929688	8.097685813903809	-673.6893310546875	1271.669311523438	37.84688949584961	-968.6167602539062	1227.250244140625	-2.430143594741821	-894.618896484375	1495.009521484375	-0.4555339515209198	-697.994384765625	1386.432739257812	28.58185195922852	-978.4605102539062	1319.24658203125	95.67784118652344	-888.06884765625	1471.277465820312	-102.6209487915039	-800.9861450195312	1457.062866210938	-170.5436248779297	-824.371337890625	1323.783935546875	-246.8061065673828	-804.220703125	1107.827758789062	-261.0783386230469	-854.1754150390625	1089.670532226562	-191.0368194580078	-686.1793212890625	879.8253173828125	-220.7563323974609	-762.9352416992188	855.794677734375	-267.0401000976562	-784.4597778320312	996.9485473632812	-273.0249938964844	-662.3414306640625	696.7449340820312	-200.8807525634766	-737.5145874023438	787.4866333007812	-262.1578063964844	-668.9879760742188	803.4393920898438	-241.4675750732422	-856.0718994140625	1467.619384765625	188.7531890869141	-886.947265625	1399.5625	252.7305908203125	-925.6179809570312	1111.5126953125	289.1980895996094	-910.6824951171875	1105.613525390625	190.8380889892578	-802.1739501953125	877.1466064453125	298.7497253417969	-886.0205688476562	863.6749877929688	322.5609130859375	-909.8290405273438	1038.25244140625	309.6679077148438	-791.6514282226562	689.2803344726562	276.274658203125	-783.8038330078125	782.5013427734375	313.2883911132812	-862.9852905273438	779.20849609375	326.1913452148438	-859.5940551757812	1642.123046875	96.95140838623047	-699.912841796875	1717.845825195312	-29.00461578369141	-698.4688720703125	1707.636352539062	100.2680053710938	-868.752685546875	1659.163208007812	-39.61691665649414	-828.4326782226562	969.466552734375	-166.6156005859375	-798.8903198242188	993.0517578125	203.3863067626953	-714.9564208984375	1018.114624023438	152.9660186767578	-703.5382080078125	1004.896911621094	-106.0625991821289	-892.9624633789062	481.0595703125	-133.5038452148438	-855.12548828125	622.447021484375	-153.8486938476562	-1217.15380859375	122.6286239624023	-119.3693466186523	-1046.673095703125	300.8348693847656	-138.7671508789062	-1039.745971679688	39.11193466186523	-96.31522369384766	-1075.216918945312	41.76073837280273	-46.60163879394531	-1134.860229492188	53.66849517822266	-155.9338684082031	-1255.257202148438	159.6449279785156	-50.42833709716797	-626.396728515625	523.3816528320312	178.0719757080078	-589.11572265625	31.88030242919922	172.0536651611328	-583.299560546875	409.0388793945312	162.5791168212891	-373.2919006347656	72.26035308837891	155.3043365478516	-421.6409301757812	61.33546447753906	104.25634765625	-480.11083984375	34.98432159423828	210.0182189941406	-636.3334350585938	36.41317367553711	100.1882095336914	-688.5694580078125	784.272216796875	216.2491607666016	
288	2.87	-933.6830444335938	1030.487915039062	71.365234375	-921.0400390625	1033.964477539062	-52.15841293334961	-927.125732421875	1070.755615234375	10.57214832305908	-662.4384765625	1274.565795898438	40.30986022949219	-957.2011108398438	1228.743041992188	0.1253411620855331	-884.4089965820312	1496.82568359375	1.953542947769165	-687.2908325195312	1389.129150390625	30.9022045135498	-967.3045654296875	1320.843017578125	98.24679565429688	-877.8720703125	1473.115844726562	-100.1033935546875	-790.9609375	1459.277587890625	-168.2584838867188	-815.142578125	1325.866455078125	-244.2095031738281	-797.6787109375	1109.608764648438	-256.9107971191406	-846.5118408203125	1092.6328125	-185.7770843505859	-683.8529052734375	879.1986083984375	-218.7956237792969	-762.109375	857.0687255859375	-263.4496154785156	-780.3800659179688	998.7709350585938	-269.0526733398438	-664.457275390625	695.4548950195312	-199.0143280029297	-738.3912963867188	788.1373901367188	-259.0539855957031	-668.974609375	802.2667236328125	-239.8086547851562	-845.6416625976562	1469.954711914062	191.0248718261719	-876.2944946289062	1402.027465820312	255.1681976318359	-914.6753540039062	1114.098510742188	291.9706115722656	-899.9228515625	1108.183471679688	193.5406799316406	-791.9935302734375	879.2568359375	301.15185546875	-875.7310791015625	866.2293090820312	325.5498657226562	-898.9671630859375	1040.863891601562	312.4487609863281	-782.6668701171875	691.2688598632812	278.4793090820312	-774.041015625	784.4264526367188	315.4844970703125	-853.1034545898438	781.598388671875	328.9990234375	-849.1920776367188	1644.520751953125	99.26424407958984	-689.646728515625	1720.015258789062	-26.98810577392578	-688.05908203125	1709.959716796875	102.2712631225586	-858.530029296875	1661.418823242188	-37.31840896606445	-816.1456909179688	970.9016723632812	-163.9859161376953	-786.8370361328125	995.9441528320312	206.0045776367188	-702.92626953125	1021.087890625	155.6047058105469	-691.8892822265625	1006.7392578125	-103.2373504638672	-877.4478149414062	481.2039489746094	-134.1999816894531	-840.7025146484375	623.1692504882812	-153.0026550292969	-1210.230712890625	130.0668182373047	-117.3271026611328	-1035.371826171875	304.1954956054688	-138.5735778808594	-1039.108642578125	38.65422439575195	-96.43402862548828	-1072.37548828125	42.3952751159668	-46.38188552856445	-1132.175048828125	57.05293273925781	-155.0995025634766	-1245.287353515625	168.870849609375	-47.97222518920898	-617.98486328125	524.1260986328125	179.5349426269531	-588.549072265625	32.05622863769531	172.2585754394531	-576.5231323242188	409.0284118652344	163.5529327392578	-372.1821899414062	69.09618377685547	154.3533020019531	-420.8728637695312	59.02335739135742	103.662971496582	-479.4714965820312	34.23684310913086	210.0836029052734	-635.9928588867188	37.01205062866211	100.6851577758789	-677.1245727539062	786.246337890625	218.1814422607422	
289	2.88	-921.8471069335938	1032.7060546875	74.00691986083984	-909.1710205078125	1035.748046875	-49.58644485473633	-915.4323120117188	1072.674560546875	13.14487934112549	-651.2890625	1277.45703125	42.70322799682617	-945.8997802734375	1230.23388671875	2.666816473007202	-874.285888671875	1498.622192382812	4.296349048614502	-676.6864013671875	1391.815551757812	33.15803527832031	-956.252197265625	1322.4111328125	100.7372894287109	-867.7593383789062	1474.949462890625	-97.65032958984375	-781.0341796875	1461.51318359375	-166.0270233154297	-805.952880859375	1328.002685546875	-241.695556640625	-790.9808349609375	1111.47705078125	-252.8314819335938	-838.7103271484375	1095.63818359375	-180.6754302978516	-681.4834594726562	878.755615234375	-216.8545684814453	-761.0907592773438	858.6236572265625	-259.9429626464844	-776.1190795898438	1000.806701660156	-265.1650085449219	-666.6919555664062	694.4207763671875	-197.0868072509766	-739.1553344726562	789.0835571289062	-255.9853210449219	-668.9329223632812	801.3305053710938	-238.1087646484375	-835.3522338867188	1472.274169921875	193.2169647216797	-865.7937622070312	1404.483154296875	257.5100708007812	-903.7604370117188	1116.67822265625	294.8938293457031	-889.2951049804688	1110.709350585938	196.3763885498047	-781.4490966796875	881.5453491210938	303.6021423339844	-865.0418090820312	868.825927734375	328.6899719238281	-888.0265502929688	1043.4736328125	315.3846130371094	-773.0328369140625	693.453369140625	280.757568359375	-763.7402954101562	786.579833984375	317.7184753417969	-842.6724853515625	784.072265625	331.9456176757812	-838.8588256835938	1646.947021484375	101.5020904541016	-679.4320678710938	1722.143676757812	-25.06038856506348	-677.7235107421875	1712.260620117188	104.1878433227539	-848.3724975585938	1663.686645507812	-35.11604690551758	-804.1098022460938	972.3038330078125	-161.2773284912109	-774.856201171875	998.7218627929688	208.6660461425781	-691.028076171875	1023.952941894531	158.2364044189453	-680.5201416015625	1008.591857910156	-100.402099609375	-861.3612060546875	481.1650695800781	-134.9310455322266	-826.0674438476562	623.769287109375	-152.2455139160156	-1202.617797851562	137.9792785644531	-115.0040435791016	-1023.437438964844	307.5597534179688	-138.2830657958984	-1037.865478515625	37.97685623168945	-96.58902740478516	-1069.002197265625	43.45649337768555	-46.23937606811523	-1129.069702148438	61.15464401245117	-154.0932464599609	-1234.438842773438	178.2599029541016	-45.16326904296875	-610.0018310546875	524.7195434570312	180.8806457519531	-588.0241088867188	32.28448867797852	172.4161682128906	-570.1529541015625	408.9410095214844	164.3846893310547	-371.3035278320312	66.36145782470703	153.2503509521484	-420.3304748535156	56.96572875976562	102.9286117553711	-478.94384765625	33.84357452392578	210.0662384033203	-635.7650756835938	37.44384384155273	101.1091918945312	-665.8432006835938	788.0191040039062	220.0947418212891	
